<svg xmlns="http://www.w3.org/2000/svg" xmlns:xlink="http://www.w3.org/1999/xlink" width="500" zoomAndPan="magnify" viewBox="0 0 375 374.999991" height="500" preserveAspectRatio="xMidYMid meet" version="1.2"><defs><clipPath id="c862ce8130"><path d="M 0 229.097656 L 375 229.097656 L 375 293.230469 L 0 293.230469 Z M 0 229.097656 "/></clipPath></defs><g id="be86ce693e"><g style="fill:#3b3937;fill-opacity:1;"><g transform="translate(171.076503, 358.466941)"><path style="stroke:none" d="M 115.40625 3.140625 C 93.8125 3.140625 75.78125 -1.675781 61.3125 -11.3125 C 46.851562 -20.957031 36.003906 -34.375 28.765625 -51.5625 C 21.535156 -68.757812 17.921875 -88.785156 17.921875 -111.640625 C 17.921875 -134.484375 21.585938 -154.660156 28.921875 -172.171875 C 36.265625 -189.679688 47.429688 -203.304688 62.421875 -213.046875 C 77.410156 -222.796875 96.332031 -227.671875 119.1875 -227.671875 C 139.519531 -227.671875 155.132812 -224.109375 166.03125 -216.984375 C 176.9375 -209.859375 182.390625 -201.367188 182.390625 -191.515625 C 182.390625 -184.171875 179.769531 -178.820312 174.53125 -175.46875 C 169.289062 -172.113281 162.789062 -170.4375 155.03125 -170.4375 C 155.03125 -189.9375 151.882812 -203.773438 145.59375 -211.953125 C 139.3125 -220.128906 129.144531 -224.21875 115.09375 -224.21875 C 92.875 -224.21875 76.941406 -214.832031 67.296875 -196.0625 C 57.648438 -177.300781 52.828125 -149.679688 52.828125 -113.203125 C 52.828125 -75.472656 57.960938 -47.171875 68.234375 -28.296875 C 78.515625 -9.429688 95.5 0 119.1875 0 C 133.226562 0 144.648438 -3.613281 153.453125 -10.84375 C 162.265625 -18.082031 168.867188 -29.769531 173.265625 -45.90625 C 178.515625 -43.8125 181.140625 -39.832031 181.140625 -33.96875 C 181.140625 -28.507812 178.726562 -22.953125 173.90625 -17.296875 C 169.082031 -11.640625 161.796875 -6.816406 152.046875 -2.828125 C 142.296875 1.148438 130.082031 3.140625 115.40625 3.140625 Z M 115.40625 3.140625 "/></g></g><g style="fill:#3b3937;fill-opacity:1;"><g transform="translate(5.301483, 250.444723)"><path style="stroke:none" d="M 11.953125 0 L 11.953125 -3.140625 L 16.03125 -3.140625 C 33.226562 -3.140625 41.828125 -10.6875 41.828125 -25.78125 L 41.828125 -200 C 41.828125 -214.257812 33.226562 -221.390625 16.03125 -221.390625 L 11.953125 -221.390625 L 11.953125 -224.53125 L 96.546875 -224.53125 C 123.796875 -224.53125 144.078125 -219.445312 157.390625 -209.28125 C 170.703125 -199.113281 177.359375 -184.59375 177.359375 -165.71875 C 177.359375 -153.351562 174.894531 -143.289062 169.96875 -135.53125 C 165.039062 -127.78125 158.75 -121.703125 151.09375 -117.296875 C 143.445312 -112.890625 135.535156 -109.535156 127.359375 -107.234375 L 171.703125 -38.046875 C 180.296875 -24.628906 187.109375 -15.457031 192.140625 -10.53125 C 197.171875 -5.601562 202.203125 -3.140625 207.234375 -3.140625 L 208.171875 -3.140625 L 208.171875 0 L 203.78125 0 C 193.925781 0 185.800781 -0.363281 179.40625 -1.09375 C 173.007812 -1.832031 167.710938 -3.144531 163.515625 -5.03125 C 159.328125 -6.914062 155.609375 -9.691406 152.359375 -13.359375 C 149.109375 -17.035156 145.597656 -21.804688 141.828125 -27.671875 L 93.390625 -104.71875 L 73.578125 -104.71875 L 73.578125 -25.78125 C 73.578125 -10.6875 82.175781 -3.140625 99.375 -3.140625 L 103.453125 -3.140625 L 103.453125 0 Z M 73.578125 -107.859375 L 95.59375 -107.859375 C 113 -107.859375 125.367188 -112.101562 132.703125 -120.59375 C 140.046875 -129.082031 143.71875 -143.394531 143.71875 -163.53125 C 143.71875 -184.28125 139.941406 -199.109375 132.390625 -208.015625 C 124.847656 -216.929688 112.375 -221.390625 94.96875 -221.390625 L 73.578125 -221.390625 Z M 73.578125 -107.859375 "/></g></g><g clip-rule="nonzero" clip-path="url(#c862ce8130)"><path style=" stroke:none;fill-rule:nonzero;fill:#f4f4f4;fill-opacity:1;" d="M -90.726562 229.097656 L 465.664062 229.097656 L 465.664062 293.230469 L -90.726562 293.230469 Z M -90.726562 229.097656 "/></g><g style="fill:#967f71;fill-opacity:1;"><g transform="translate(77.672333, 273.48988)"><path style="stroke:none" d="M 23.875 -7.28125 C 24.007812 -7.132812 24.078125 -6.96875 24.078125 -6.78125 C 24.078125 -6.570312 24.003906 -6.394531 23.859375 -6.25 C 22.898438 -5.3125 21.828125 -4.503906 20.640625 -3.828125 C 19.460938 -3.160156 18.238281 -2.601562 16.96875 -2.15625 C 15.707031 -1.71875 14.484375 -1.390625 13.296875 -1.171875 C 12.109375 -0.960938 11.023438 -0.859375 10.046875 -0.859375 C 8.992188 -0.804688 7.976562 -1 7 -1.4375 C 6.332031 -1.820312 5.882812 -2.242188 5.65625 -2.703125 C 5.425781 -3.171875 5.328125 -3.648438 5.359375 -4.140625 C 5.398438 -4.628906 5.507812 -5.085938 5.6875 -5.515625 C 5.863281 -5.953125 6.035156 -6.328125 6.203125 -6.640625 C 6.234375 -6.710938 6.210938 -6.765625 6.140625 -6.796875 C 6.066406 -6.835938 5.9375 -6.8125 5.75 -6.71875 C 4.738281 -6.164062 3.648438 -5.921875 2.484375 -5.984375 C 1.972656 -5.960938 1.46875 -6.0625 0.96875 -6.28125 C 0.78125 -6.226562 0.597656 -6.25 0.421875 -6.34375 C 0.117188 -6.488281 -0.0078125 -6.726562 0.03125 -7.0625 C -0.25 -7.382812 -0.441406 -7.757812 -0.546875 -8.1875 C -0.773438 -8.945312 -0.757812 -9.695312 -0.5 -10.4375 C -0.238281 -11.175781 0.210938 -11.785156 0.859375 -12.265625 C 1.628906 -12.722656 2.238281 -12.738281 2.6875 -12.3125 C 2.738281 -12.257812 2.804688 -12.160156 2.890625 -12.015625 C 2.972656 -11.878906 3.023438 -11.664062 3.046875 -11.375 C 3.066406 -11.082031 3.003906 -10.664062 2.859375 -10.125 C 2.722656 -9.59375 2.460938 -8.894531 2.078125 -8.03125 C 2.035156 -7.957031 2.0625 -7.835938 2.15625 -7.671875 C 2.25 -7.503906 2.359375 -7.421875 2.484375 -7.421875 C 3.554688 -7.421875 4.5625 -7.6875 5.5 -8.21875 C 5.820312 -8.382812 6.15625 -8.519531 6.5 -8.625 C 6.851562 -8.738281 7.222656 -8.648438 7.609375 -8.359375 C 7.992188 -8.066406 8.117188 -7.703125 7.984375 -7.265625 C 7.859375 -6.828125 7.695312 -6.40625 7.5 -6 C 7.070312 -5.132812 6.847656 -4.457031 6.828125 -3.96875 C 6.816406 -3.476562 7.125 -3.050781 7.75 -2.6875 C 8.101562 -2.476562 8.695312 -2.347656 9.53125 -2.296875 C 10.375 -2.253906 11.351562 -2.320312 12.46875 -2.5 C 13.582031 -2.675781 14.753906 -2.960938 15.984375 -3.359375 C 17.222656 -3.753906 18.429688 -4.273438 19.609375 -4.921875 C 20.796875 -5.566406 21.867188 -6.363281 22.828125 -7.3125 C 22.972656 -7.4375 23.148438 -7.5 23.359375 -7.5 C 23.554688 -7.5 23.726562 -7.425781 23.875 -7.28125 Z M 0.796875 -8.796875 C 1.128906 -9.492188 1.390625 -10.222656 1.578125 -10.984375 C 0.890625 -10.390625 0.628906 -9.660156 0.796875 -8.796875 Z M 0.796875 -8.796875 "/></g></g><g style="fill:#967f71;fill-opacity:1;"><g transform="translate(100.362662, 273.48988)"><path style="stroke:none" d="M 23.21875 -7.109375 C 23.34375 -6.960938 23.394531 -6.785156 23.375 -6.578125 C 23.363281 -6.378906 23.273438 -6.21875 23.109375 -6.09375 C 23.035156 -6.03125 22.703125 -5.78125 22.109375 -5.34375 C 21.515625 -4.914062 20.71875 -4.398438 19.71875 -3.796875 C 18.726562 -3.203125 17.578125 -2.609375 16.265625 -2.015625 C 14.960938 -1.429688 13.5625 -0.941406 12.0625 -0.546875 C 10.570312 -0.160156 9.03125 0.03125 7.4375 0.03125 C 5.5625 0.0507812 3.753906 -0.289062 2.015625 -1 C 1.054688 -1.382812 0.382812 -1.832031 0 -2.34375 C -0.382812 -2.863281 -0.601562 -3.375 -0.65625 -3.875 C -0.71875 -4.375 -0.710938 -4.796875 -0.640625 -5.140625 C -0.472656 -5.828125 -0.148438 -6.488281 0.328125 -7.125 C 0.804688 -7.757812 1.367188 -8.332031 2.015625 -8.84375 C 2.660156 -9.351562 3.320312 -9.742188 4 -10.015625 C 4.675781 -10.296875 5.289062 -10.414062 5.84375 -10.375 C 6.332031 -10.375 6.757812 -10.195312 7.125 -9.84375 C 7.488281 -9.5 7.6875 -9.066406 7.71875 -8.546875 C 7.738281 -8.253906 7.664062 -7.890625 7.5 -7.453125 C 7.332031 -7.023438 6.90625 -6.585938 6.21875 -6.140625 C 4.65625 -5.160156 2.941406 -4.726562 1.078125 -4.84375 C 0.984375 -4.863281 0.898438 -4.84375 0.828125 -4.78125 C 0.753906 -4.726562 0.726562 -4.65625 0.75 -4.5625 C 0.726562 -4.394531 0.742188 -4.179688 0.796875 -3.921875 C 0.859375 -3.671875 1.015625 -3.40625 1.265625 -3.125 C 1.523438 -2.851562 1.960938 -2.597656 2.578125 -2.359375 C 3.828125 -1.816406 5.109375 -1.507812 6.421875 -1.4375 C 7.742188 -1.363281 9.039062 -1.445312 10.3125 -1.6875 C 11.59375 -1.925781 12.816406 -2.257812 13.984375 -2.6875 C 15.160156 -3.125 16.238281 -3.597656 17.21875 -4.109375 C 18.207031 -4.628906 19.070312 -5.117188 19.8125 -5.578125 C 20.550781 -6.046875 21.128906 -6.4375 21.546875 -6.75 C 21.972656 -7.0625 22.1875 -7.21875 22.1875 -7.21875 C 22.351562 -7.351562 22.539062 -7.410156 22.75 -7.390625 C 22.925781 -7.367188 23.082031 -7.273438 23.21875 -7.109375 Z M 1.71875 -6.53125 C 1.507812 -6.25 1.53125 -6.09375 1.78125 -6.0625 C 2.03125 -6.039062 2.382812 -6.097656 2.84375 -6.234375 C 3.3125 -6.378906 3.789062 -6.554688 4.28125 -6.765625 C 4.769531 -6.972656 5.160156 -7.171875 5.453125 -7.359375 C 6.023438 -7.742188 6.289062 -8.09375 6.25 -8.40625 C 6.226562 -8.613281 6.175781 -8.75 6.09375 -8.8125 C 6.019531 -8.875 5.90625 -8.914062 5.75 -8.9375 C 5.164062 -8.976562 4.484375 -8.769531 3.703125 -8.3125 C 2.929688 -7.863281 2.269531 -7.269531 1.71875 -6.53125 Z M 1.71875 -6.53125 "/></g></g><g style="fill:#967f71;fill-opacity:1;"><g transform="translate(122.52723, 273.48988)"><path style="stroke:none" d="M 19.265625 -7.28125 C 19.410156 -7.144531 19.488281 -6.972656 19.5 -6.765625 C 19.507812 -6.566406 19.4375 -6.40625 19.28125 -6.28125 C 18.457031 -5.394531 17.484375 -4.757812 16.359375 -4.375 C 15.242188 -4 14.101562 -3.875 12.9375 -4 C 11.78125 -4.132812 10.695312 -4.546875 9.6875 -5.234375 C 9.351562 -5.453125 9.039062 -5.421875 8.75 -5.140625 C 7.65625 -4.078125 6.640625 -2.953125 5.703125 -1.765625 C 5.609375 -1.660156 5.550781 -1.539062 5.53125 -1.40625 C 5.34375 -0.28125 5.109375 0.878906 4.828125 2.078125 C 4.546875 3.273438 4.226562 4.441406 3.875 5.578125 C 3.519531 6.710938 3.148438 7.765625 2.765625 8.734375 C 2.378906 9.703125 1.988281 10.515625 1.59375 11.171875 C 1.195312 11.835938 0.8125 12.289062 0.4375 12.53125 C 0.1875 12.71875 -0.0859375 12.8125 -0.390625 12.8125 C -0.773438 12.8125 -1.097656 12.671875 -1.359375 12.390625 C -1.960938 11.742188 -2.226562 10.976562 -2.15625 10.09375 C -2.132812 9.320312 -1.945312 8.445312 -1.59375 7.46875 C -1.25 6.488281 -0.789062 5.457031 -0.21875 4.375 C 0.351562 3.300781 1.003906 2.210938 1.734375 1.109375 C 2.472656 0.015625 3.25 -1.035156 4.0625 -2.046875 C 4.15625 -2.171875 4.210938 -2.3125 4.234375 -2.46875 C 4.359375 -3.28125 4.441406 -4.015625 4.484375 -4.671875 C 4.203125 -4.117188 3.875 -3.570312 3.5 -3.03125 C 3.132812 -2.488281 2.738281 -2.019531 2.3125 -1.625 C 1.894531 -1.226562 1.457031 -0.984375 1 -0.890625 C 0.1875 -0.742188 -0.476562 -0.988281 -1 -1.625 C -1.363281 -2.03125 -1.515625 -2.585938 -1.453125 -3.296875 C -1.390625 -4.015625 -1.238281 -4.675781 -1 -5.28125 C -0.476562 -6.664062 0.367188 -7.8125 1.546875 -8.71875 C 2.734375 -9.625 4.0625 -10.140625 5.53125 -10.265625 C 5.738281 -10.285156 5.921875 -10.226562 6.078125 -10.09375 C 6.234375 -9.96875 6.3125 -9.804688 6.3125 -9.609375 C 6.332031 -9.398438 6.273438 -9.21875 6.140625 -9.0625 C 6.015625 -8.90625 5.847656 -8.828125 5.640625 -8.828125 C 4.441406 -8.703125 3.367188 -8.273438 2.421875 -7.546875 C 1.472656 -6.816406 0.785156 -5.894531 0.359375 -4.78125 C -0.00390625 -4.082031 -0.0976562 -3.351562 0.078125 -2.59375 C 0.242188 -2.4375 0.378906 -2.347656 0.484375 -2.328125 C 0.585938 -2.304688 0.664062 -2.304688 0.71875 -2.328125 C 1 -2.378906 1.304688 -2.585938 1.640625 -2.953125 C 1.984375 -3.328125 2.320312 -3.796875 2.65625 -4.359375 C 2.988281 -4.921875 3.296875 -5.507812 3.578125 -6.125 C 3.867188 -6.75 4.113281 -7.328125 4.3125 -7.859375 C 4.425781 -8.171875 4.648438 -8.328125 4.984375 -8.328125 C 5.316406 -8.328125 5.546875 -8.179688 5.671875 -7.890625 C 5.859375 -7.316406 5.953125 -6.722656 5.953125 -6.109375 C 5.972656 -5.910156 6.007812 -5.695312 6.0625 -5.46875 C 6.113281 -5.238281 6.234375 -5.113281 6.421875 -5.09375 C 6.609375 -5.070312 6.875 -5.253906 7.21875 -5.640625 C 7.363281 -5.828125 7.519531 -6 7.6875 -6.15625 C 7.851562 -6.3125 8.019531 -6.460938 8.1875 -6.609375 C 8.445312 -6.847656 8.753906 -6.976562 9.109375 -7 C 9.472656 -7.019531 9.800781 -6.921875 10.09375 -6.703125 C 10.90625 -6.054688 11.804688 -5.644531 12.796875 -5.46875 C 13.785156 -5.289062 14.757812 -5.351562 15.71875 -5.65625 C 16.675781 -5.957031 17.515625 -6.488281 18.234375 -7.25 C 18.359375 -7.394531 18.519531 -7.472656 18.71875 -7.484375 C 18.925781 -7.492188 19.109375 -7.425781 19.265625 -7.28125 Z M 0.828125 9.609375 C 1.046875 9.179688 1.296875 8.617188 1.578125 7.921875 C 1.859375 7.234375 2.140625 6.492188 2.421875 5.703125 C 2.703125 4.921875 2.945312 4.1875 3.15625 3.5 C 3.375 2.8125 3.53125 2.234375 3.625 1.765625 C 3.71875 1.304688 3.71875 1.0625 3.625 1.03125 C 3.53125 0.988281 3.363281 1.132812 3.125 1.46875 C 2.882812 1.800781 2.601562 2.25 2.28125 2.8125 C 1.957031 3.375 1.625 4 1.28125 4.6875 C 0.945312 5.382812 0.628906 6.082031 0.328125 6.78125 C 0.0351562 7.476562 -0.203125 8.125 -0.390625 8.71875 C -0.578125 9.3125 -0.675781 9.78125 -0.6875 10.125 C -0.6875 10.40625 -0.671875 10.664062 -0.640625 10.90625 C -0.617188 11.144531 -0.523438 11.289062 -0.359375 11.34375 C -0.191406 11.382812 -0.03125 11.265625 0.125 10.984375 C 0.28125 10.710938 0.515625 10.253906 0.828125 9.609375 Z M 0.828125 9.609375 "/></g></g><g style="fill:#967f71;fill-opacity:1;"><g transform="translate(140.762513, 273.48988)"><path style="stroke:none" d="M 23.140625 -6.71875 C 23.265625 -6.570312 23.328125 -6.398438 23.328125 -6.203125 C 23.304688 -5.992188 23.222656 -5.828125 23.078125 -5.703125 C 23.023438 -5.648438 22.753906 -5.421875 22.265625 -5.015625 C 21.773438 -4.609375 21.128906 -4.125 20.328125 -3.5625 C 19.523438 -3.007812 18.617188 -2.46875 17.609375 -1.9375 C 16.609375 -1.414062 15.546875 -1 14.421875 -0.6875 C 13.304688 -0.375 12.191406 -0.253906 11.078125 -0.328125 C 9.960938 -0.398438 8.898438 -0.769531 7.890625 -1.4375 C 7.109375 -1.9375 6.488281 -2.582031 6.03125 -3.375 C 5.90625 -3.59375 5.703125 -3.710938 5.421875 -3.734375 C 5.160156 -3.753906 4.957031 -3.65625 4.8125 -3.4375 C 4.40625 -2.820312 3.960938 -2.242188 3.484375 -1.703125 C 3.003906 -1.160156 2.515625 -0.722656 2.015625 -0.390625 C 1.515625 -0.0546875 1.035156 0.117188 0.578125 0.140625 L 0.546875 0.140625 C 0.222656 0.117188 -0.078125 0.015625 -0.359375 -0.171875 C -0.648438 -0.367188 -0.863281 -0.625 -1 -0.9375 C -1.550781 -2.320312 -1.46875 -3.671875 -0.75 -4.984375 C -0.132812 -6.253906 0.71875 -7.335938 1.8125 -8.234375 C 2.90625 -9.128906 4.144531 -9.742188 5.53125 -10.078125 C 5.8125 -10.148438 6.039062 -10.082031 6.21875 -9.875 C 6.425781 -9.675781 6.492188 -9.4375 6.421875 -9.15625 C 6.328125 -8.894531 6.140625 -8.726562 5.859375 -8.65625 C 4.703125 -8.382812 3.660156 -7.875 2.734375 -7.125 C 1.816406 -6.375 1.097656 -5.457031 0.578125 -4.375 C 0.0664062 -3.488281 -0.0234375 -2.566406 0.296875 -1.609375 C 0.410156 -1.421875 0.492188 -1.328125 0.546875 -1.328125 C 0.710938 -1.210938 0.960938 -1.328125 1.296875 -1.671875 C 1.628906 -2.015625 2.007812 -2.5 2.4375 -3.125 C 2.863281 -3.75 3.28125 -4.441406 3.6875 -5.203125 C 4.101562 -5.960938 4.476562 -6.703125 4.8125 -7.421875 C 4.957031 -7.753906 5.21875 -7.890625 5.59375 -7.828125 C 5.9375 -7.773438 6.140625 -7.570312 6.203125 -7.21875 C 6.203125 -7.195312 6.238281 -7.015625 6.3125 -6.671875 C 6.382812 -6.335938 6.507812 -5.921875 6.6875 -5.421875 C 6.875 -4.921875 7.128906 -4.414062 7.453125 -3.90625 C 7.773438 -3.40625 8.1875 -2.988281 8.6875 -2.65625 C 9.539062 -2.082031 10.457031 -1.78125 11.4375 -1.75 C 12.425781 -1.726562 13.414062 -1.878906 14.40625 -2.203125 C 15.40625 -2.523438 16.363281 -2.929688 17.28125 -3.421875 C 18.195312 -3.910156 19.015625 -4.410156 19.734375 -4.921875 C 20.453125 -5.441406 21.019531 -5.875 21.4375 -6.21875 C 21.863281 -6.570312 22.085938 -6.757812 22.109375 -6.78125 C 22.253906 -6.90625 22.425781 -6.960938 22.625 -6.953125 C 22.832031 -6.953125 23.003906 -6.875 23.140625 -6.71875 Z M 23.140625 -6.71875 "/></g></g><g style="fill:#967f71;fill-opacity:1;"><g transform="translate(163.120792, 273.48988)"><path style="stroke:none" d="M 19.03125 -7.109375 C 19.1875 -6.960938 19.265625 -6.785156 19.265625 -6.578125 C 19.265625 -6.378906 19.1875 -6.207031 19.03125 -6.0625 C 18.976562 -6.007812 18.707031 -5.757812 18.21875 -5.3125 C 17.726562 -4.875 17.085938 -4.347656 16.296875 -3.734375 C 15.503906 -3.128906 14.597656 -2.519531 13.578125 -1.90625 C 12.566406 -1.300781 11.503906 -0.796875 10.390625 -0.390625 C 9.273438 0.015625 8.15625 0.21875 7.03125 0.21875 C 6.34375 0.21875 5.675781 0.125 5.03125 -0.0625 C 3.832031 -0.40625 2.832031 -1.125 2.03125 -2.21875 C 1.226562 -3.320312 0.644531 -4.738281 0.28125 -6.46875 C 0.238281 -6.5625 0.21875 -6.65625 0.21875 -6.75 C 0.0507812 -7.65625 -0.0546875 -8.566406 -0.109375 -9.484375 C -0.160156 -10.691406 -0.132812 -11.945312 -0.03125 -13.25 C 0.0625 -14.5625 0.226562 -15.847656 0.46875 -17.109375 C 0.707031 -18.378906 1.015625 -19.550781 1.390625 -20.625 C 1.773438 -21.707031 2.203125 -22.617188 2.671875 -23.359375 C 3.140625 -24.097656 3.660156 -24.59375 4.234375 -24.84375 C 4.617188 -25.007812 5.023438 -25.035156 5.453125 -24.921875 C 5.878906 -24.816406 6.21875 -24.597656 6.46875 -24.265625 C 6.875 -23.835938 7.09375 -23.222656 7.125 -22.421875 C 7.15625 -21.617188 7.054688 -20.703125 6.828125 -19.671875 C 6.609375 -18.640625 6.304688 -17.550781 5.921875 -16.40625 C 5.535156 -15.257812 5.109375 -14.132812 4.640625 -13.03125 C 4.179688 -11.925781 3.726562 -10.894531 3.28125 -9.9375 C 2.84375 -8.976562 2.46875 -8.175781 2.15625 -7.53125 C 1.863281 -6.914062 1.8125 -6.296875 2 -5.671875 C 2.269531 -4.710938 2.675781 -3.835938 3.21875 -3.046875 C 3.769531 -2.265625 4.515625 -1.726562 5.453125 -1.4375 C 6.316406 -1.175781 7.222656 -1.128906 8.171875 -1.296875 C 9.128906 -1.460938 10.070312 -1.757812 11 -2.1875 C 11.925781 -2.625 12.8125 -3.113281 13.65625 -3.65625 C 14.5 -4.207031 15.242188 -4.738281 15.890625 -5.25 C 16.535156 -5.769531 17.046875 -6.203125 17.421875 -6.546875 C 17.796875 -6.898438 17.992188 -7.085938 18.015625 -7.109375 C 18.160156 -7.242188 18.335938 -7.3125 18.546875 -7.3125 C 18.722656 -7.3125 18.882812 -7.242188 19.03125 -7.109375 Z M 1.4375 -9.90625 C 1.457031 -9.78125 1.519531 -9.691406 1.625 -9.640625 C 1.738281 -9.597656 1.832031 -9.628906 1.90625 -9.734375 C 2.144531 -10.128906 2.421875 -10.703125 2.734375 -11.453125 C 3.046875 -12.210938 3.367188 -13.070312 3.703125 -14.03125 C 4.035156 -14.988281 4.335938 -15.960938 4.609375 -16.953125 C 4.890625 -17.953125 5.125 -18.894531 5.3125 -19.78125 C 5.5 -20.664062 5.609375 -21.421875 5.640625 -22.046875 C 5.679688 -22.679688 5.609375 -23.085938 5.421875 -23.265625 C 5.253906 -23.453125 5.097656 -23.546875 4.953125 -23.546875 C 4.898438 -23.546875 4.84375 -23.535156 4.78125 -23.515625 C 4.507812 -23.390625 4.191406 -22.992188 3.828125 -22.328125 C 3.472656 -21.660156 3.117188 -20.820312 2.765625 -19.8125 C 2.410156 -18.800781 2.097656 -17.703125 1.828125 -16.515625 C 1.566406 -15.335938 1.390625 -14.171875 1.296875 -13.015625 C 1.203125 -11.867188 1.25 -10.832031 1.4375 -9.90625 Z M 1.4375 -9.90625 "/></g></g><g style="fill:#967f71;fill-opacity:1;"><g transform="translate(181.356074, 273.48988)"><path style="stroke:none" d="M 2.1875 -9.15625 C 2.164062 -9.15625 2.140625 -9.15625 2.109375 -9.15625 C 1.921875 -9.15625 1.753906 -9.21875 1.609375 -9.34375 C 1.472656 -9.476562 1.398438 -9.644531 1.390625 -9.84375 C 1.367188 -10.03125 1.421875 -10.195312 1.546875 -10.34375 C 1.679688 -10.5 1.835938 -10.582031 2.015625 -10.59375 L 11.15625 -11.703125 C 11.351562 -11.722656 11.535156 -11.671875 11.703125 -11.546875 C 11.847656 -11.429688 11.929688 -11.269531 11.953125 -11.0625 C 11.992188 -10.863281 11.945312 -10.6875 11.8125 -10.53125 C 11.6875 -10.375 11.519531 -10.285156 11.3125 -10.265625 Z M 2.1875 -9.15625 "/></g></g><g style="fill:#967f71;fill-opacity:1;"><g transform="translate(194.721233, 273.48988)"><path style="stroke:none" d="M 23.328125 -6.921875 C 23.472656 -6.773438 23.535156 -6.597656 23.515625 -6.390625 C 23.515625 -6.191406 23.429688 -6.023438 23.265625 -5.890625 C 21.015625 -4.015625 18.503906 -2.566406 15.734375 -1.546875 C 12.972656 -0.535156 10.117188 -0.0195312 7.171875 0 C 5.734375 0 4.300781 -0.128906 2.875 -0.390625 C 1.695312 -0.585938 0.820312 -0.898438 0.25 -1.328125 C -0.320312 -1.753906 -0.703125 -2.203125 -0.890625 -2.671875 C -1.085938 -3.140625 -1.1875 -3.550781 -1.1875 -3.90625 C -1.1875 -4.625 -0.984375 -5.347656 -0.578125 -6.078125 C -0.171875 -6.804688 0.347656 -7.484375 0.984375 -8.109375 C 1.617188 -8.734375 2.289062 -9.257812 3 -9.6875 C 3.707031 -10.113281 4.359375 -10.378906 4.953125 -10.484375 C 6.078125 -10.796875 7.09375 -10.601562 8 -9.90625 C 8.75 -9.1875 9.125 -8.300781 9.125 -7.25 C 9.113281 -7.050781 9.035156 -6.878906 8.890625 -6.734375 C 8.753906 -6.597656 8.585938 -6.53125 8.390625 -6.53125 C 8.179688 -6.53125 8.007812 -6.601562 7.875 -6.75 C 7.738281 -6.894531 7.671875 -7.070312 7.671875 -7.28125 C 7.679688 -7.863281 7.476562 -8.367188 7.0625 -8.796875 C 6.488281 -9.171875 5.878906 -9.253906 5.234375 -9.046875 C 4.734375 -8.953125 4.195312 -8.722656 3.625 -8.359375 C 3.050781 -8.003906 2.507812 -7.570312 2 -7.0625 C 1.5 -6.5625 1.082031 -6.03125 0.75 -5.46875 C 0.414062 -4.90625 0.25 -4.382812 0.25 -3.90625 C 0.269531 -2.851562 1.226562 -2.148438 3.125 -1.796875 C 4.96875 -1.460938 6.722656 -1.347656 8.390625 -1.453125 C 10.066406 -1.566406 11.613281 -1.820312 13.03125 -2.21875 C 14.457031 -2.625 15.734375 -3.085938 16.859375 -3.609375 C 17.992188 -4.140625 18.960938 -4.65625 19.765625 -5.15625 C 20.566406 -5.664062 21.1875 -6.09375 21.625 -6.4375 C 22.0625 -6.78125 22.285156 -6.957031 22.296875 -6.96875 C 22.453125 -7.101562 22.628906 -7.164062 22.828125 -7.15625 C 23.035156 -7.144531 23.203125 -7.066406 23.328125 -6.921875 Z M 23.328125 -6.921875 "/></g></g><g style="fill:#967f71;fill-opacity:1;"><g transform="translate(216.885802, 273.48988)"><path style="stroke:none" d="M 23.875 -7.28125 C 24.007812 -7.132812 24.078125 -6.96875 24.078125 -6.78125 C 24.078125 -6.570312 24.003906 -6.394531 23.859375 -6.25 C 22.898438 -5.3125 21.828125 -4.503906 20.640625 -3.828125 C 19.460938 -3.160156 18.238281 -2.601562 16.96875 -2.15625 C 15.707031 -1.71875 14.484375 -1.390625 13.296875 -1.171875 C 12.109375 -0.960938 11.023438 -0.859375 10.046875 -0.859375 C 8.992188 -0.804688 7.976562 -1 7 -1.4375 C 6.332031 -1.820312 5.882812 -2.242188 5.65625 -2.703125 C 5.425781 -3.171875 5.328125 -3.648438 5.359375 -4.140625 C 5.398438 -4.628906 5.507812 -5.085938 5.6875 -5.515625 C 5.863281 -5.953125 6.035156 -6.328125 6.203125 -6.640625 C 6.234375 -6.710938 6.210938 -6.765625 6.140625 -6.796875 C 6.066406 -6.835938 5.9375 -6.8125 5.75 -6.71875 C 4.738281 -6.164062 3.648438 -5.921875 2.484375 -5.984375 C 1.972656 -5.960938 1.46875 -6.0625 0.96875 -6.28125 C 0.78125 -6.226562 0.597656 -6.25 0.421875 -6.34375 C 0.117188 -6.488281 -0.0078125 -6.726562 0.03125 -7.0625 C -0.25 -7.382812 -0.441406 -7.757812 -0.546875 -8.1875 C -0.773438 -8.945312 -0.757812 -9.695312 -0.5 -10.4375 C -0.238281 -11.175781 0.210938 -11.785156 0.859375 -12.265625 C 1.628906 -12.722656 2.238281 -12.738281 2.6875 -12.3125 C 2.738281 -12.257812 2.804688 -12.160156 2.890625 -12.015625 C 2.972656 -11.878906 3.023438 -11.664062 3.046875 -11.375 C 3.066406 -11.082031 3.003906 -10.664062 2.859375 -10.125 C 2.722656 -9.59375 2.460938 -8.894531 2.078125 -8.03125 C 2.035156 -7.957031 2.0625 -7.835938 2.15625 -7.671875 C 2.25 -7.503906 2.359375 -7.421875 2.484375 -7.421875 C 3.554688 -7.421875 4.5625 -7.6875 5.5 -8.21875 C 5.820312 -8.382812 6.15625 -8.519531 6.5 -8.625 C 6.851562 -8.738281 7.222656 -8.648438 7.609375 -8.359375 C 7.992188 -8.066406 8.117188 -7.703125 7.984375 -7.265625 C 7.859375 -6.828125 7.695312 -6.40625 7.5 -6 C 7.070312 -5.132812 6.847656 -4.457031 6.828125 -3.96875 C 6.816406 -3.476562 7.125 -3.050781 7.75 -2.6875 C 8.101562 -2.476562 8.695312 -2.347656 9.53125 -2.296875 C 10.375 -2.253906 11.351562 -2.320312 12.46875 -2.5 C 13.582031 -2.675781 14.753906 -2.960938 15.984375 -3.359375 C 17.222656 -3.753906 18.429688 -4.273438 19.609375 -4.921875 C 20.796875 -5.566406 21.867188 -6.363281 22.828125 -7.3125 C 22.972656 -7.4375 23.148438 -7.5 23.359375 -7.5 C 23.554688 -7.5 23.726562 -7.425781 23.875 -7.28125 Z M 0.796875 -8.796875 C 1.128906 -9.492188 1.390625 -10.222656 1.578125 -10.984375 C 0.890625 -10.390625 0.628906 -9.660156 0.796875 -8.796875 Z M 0.796875 -8.796875 "/></g></g><g style="fill:#967f71;fill-opacity:1;"><g transform="translate(239.576131, 273.48988)"><path style="stroke:none" d="M 23.21875 -7.109375 C 23.34375 -6.960938 23.394531 -6.785156 23.375 -6.578125 C 23.363281 -6.378906 23.273438 -6.21875 23.109375 -6.09375 C 23.035156 -6.03125 22.703125 -5.78125 22.109375 -5.34375 C 21.515625 -4.914062 20.71875 -4.398438 19.71875 -3.796875 C 18.726562 -3.203125 17.578125 -2.609375 16.265625 -2.015625 C 14.960938 -1.429688 13.5625 -0.941406 12.0625 -0.546875 C 10.570312 -0.160156 9.03125 0.03125 7.4375 0.03125 C 5.5625 0.0507812 3.753906 -0.289062 2.015625 -1 C 1.054688 -1.382812 0.382812 -1.832031 0 -2.34375 C -0.382812 -2.863281 -0.601562 -3.375 -0.65625 -3.875 C -0.71875 -4.375 -0.710938 -4.796875 -0.640625 -5.140625 C -0.472656 -5.828125 -0.148438 -6.488281 0.328125 -7.125 C 0.804688 -7.757812 1.367188 -8.332031 2.015625 -8.84375 C 2.660156 -9.351562 3.320312 -9.742188 4 -10.015625 C 4.675781 -10.296875 5.289062 -10.414062 5.84375 -10.375 C 6.332031 -10.375 6.757812 -10.195312 7.125 -9.84375 C 7.488281 -9.5 7.6875 -9.066406 7.71875 -8.546875 C 7.738281 -8.253906 7.664062 -7.890625 7.5 -7.453125 C 7.332031 -7.023438 6.90625 -6.585938 6.21875 -6.140625 C 4.65625 -5.160156 2.941406 -4.726562 1.078125 -4.84375 C 0.984375 -4.863281 0.898438 -4.84375 0.828125 -4.78125 C 0.753906 -4.726562 0.726562 -4.65625 0.75 -4.5625 C 0.726562 -4.394531 0.742188 -4.179688 0.796875 -3.921875 C 0.859375 -3.671875 1.015625 -3.40625 1.265625 -3.125 C 1.523438 -2.851562 1.960938 -2.597656 2.578125 -2.359375 C 3.828125 -1.816406 5.109375 -1.507812 6.421875 -1.4375 C 7.742188 -1.363281 9.039062 -1.445312 10.3125 -1.6875 C 11.59375 -1.925781 12.816406 -2.257812 13.984375 -2.6875 C 15.160156 -3.125 16.238281 -3.597656 17.21875 -4.109375 C 18.207031 -4.628906 19.070312 -5.117188 19.8125 -5.578125 C 20.550781 -6.046875 21.128906 -6.4375 21.546875 -6.75 C 21.972656 -7.0625 22.1875 -7.21875 22.1875 -7.21875 C 22.351562 -7.351562 22.539062 -7.410156 22.75 -7.390625 C 22.925781 -7.367188 23.082031 -7.273438 23.21875 -7.109375 Z M 1.71875 -6.53125 C 1.507812 -6.25 1.53125 -6.09375 1.78125 -6.0625 C 2.03125 -6.039062 2.382812 -6.097656 2.84375 -6.234375 C 3.3125 -6.378906 3.789062 -6.554688 4.28125 -6.765625 C 4.769531 -6.972656 5.160156 -7.171875 5.453125 -7.359375 C 6.023438 -7.742188 6.289062 -8.09375 6.25 -8.40625 C 6.226562 -8.613281 6.175781 -8.75 6.09375 -8.8125 C 6.019531 -8.875 5.90625 -8.914062 5.75 -8.9375 C 5.164062 -8.976562 4.484375 -8.769531 3.703125 -8.3125 C 2.929688 -7.863281 2.269531 -7.269531 1.71875 -6.53125 Z M 1.71875 -6.53125 "/></g></g><g style="fill:#967f71;fill-opacity:1;"><g transform="translate(261.740699, 273.48988)"><path style="stroke:none" d="M 19.015625 -7.671875 C 19.140625 -7.535156 19.203125 -7.363281 19.203125 -7.15625 C 19.203125 -6.957031 19.140625 -6.785156 19.015625 -6.640625 C 18.253906 -5.878906 17.347656 -5.144531 16.296875 -4.4375 C 15.242188 -3.726562 14.109375 -3.09375 12.890625 -2.53125 C 11.671875 -1.96875 10.4375 -1.519531 9.1875 -1.1875 C 7.9375 -0.851562 6.726562 -0.6875 5.5625 -0.6875 C 5.082031 -0.6875 4.617188 -0.71875 4.171875 -0.78125 C 3.253906 -0.851562 2.40625 -1.132812 1.625 -1.625 C 0.851562 -2.113281 0.238281 -2.753906 -0.21875 -3.546875 C -0.3125 -3.710938 -0.332031 -3.882812 -0.28125 -4.0625 C -0.238281 -4.25 -0.132812 -4.398438 0.03125 -4.515625 C 0.195312 -4.617188 0.375 -4.644531 0.5625 -4.59375 C 0.757812 -4.550781 0.914062 -4.453125 1.03125 -4.296875 C 1.425781 -3.753906 1.921875 -3.34375 2.515625 -3.0625 C 3.109375 -2.789062 3.726562 -2.660156 4.375 -2.671875 C 5.019531 -2.679688 5.632812 -2.851562 6.21875 -3.1875 C 6.613281 -3.40625 6.847656 -3.726562 6.921875 -4.15625 C 7.015625 -4.59375 6.898438 -4.976562 6.578125 -5.3125 C 6.265625 -5.644531 5.914062 -5.929688 5.53125 -6.171875 C 4.757812 -6.628906 4.113281 -7.21875 3.59375 -7.9375 C 3.519531 -8.070312 3.410156 -8.144531 3.265625 -8.15625 C 3.117188 -8.175781 3 -8.140625 2.90625 -8.046875 L 0.796875 -6.0625 C 0.597656 -5.875 0.359375 -5.816406 0.078125 -5.890625 C -0.191406 -5.960938 -0.359375 -6.140625 -0.421875 -6.421875 C -0.492188 -6.691406 -0.414062 -6.929688 -0.1875 -7.140625 L 4.046875 -11.125 C 4.523438 -11.695312 5.066406 -12.203125 5.671875 -12.640625 C 5.816406 -12.753906 5.984375 -12.800781 6.171875 -12.78125 C 6.367188 -12.757812 6.535156 -12.675781 6.671875 -12.53125 C 6.796875 -12.382812 6.847656 -12.210938 6.828125 -12.015625 C 6.816406 -11.828125 6.742188 -11.671875 6.609375 -11.546875 L 5.09375 -10.125 C 4.851562 -9.851562 4.722656 -9.53125 4.703125 -9.15625 C 4.703125 -8.820312 4.878906 -8.507812 5.234375 -8.21875 C 5.597656 -7.925781 5.972656 -7.640625 6.359375 -7.359375 C 6.929688 -7.023438 7.421875 -6.601562 7.828125 -6.09375 C 8.140625 -5.644531 8.316406 -5.148438 8.359375 -4.609375 C 8.410156 -4.066406 8.304688 -3.554688 8.046875 -3.078125 C 7.972656 -2.921875 7.992188 -2.78125 8.109375 -2.65625 C 8.203125 -2.53125 8.332031 -2.484375 8.5 -2.515625 C 12.113281 -3.378906 15.273438 -5.097656 17.984375 -7.671875 C 18.117188 -7.816406 18.285156 -7.890625 18.484375 -7.890625 C 18.691406 -7.890625 18.867188 -7.816406 19.015625 -7.671875 Z M 19.015625 -7.671875 "/></g></g><g style="fill:#967f71;fill-opacity:1;"><g transform="translate(279.616256, 273.48988)"><path style="stroke:none" d="M 19.015625 -7.53125 C 19.160156 -7.394531 19.234375 -7.226562 19.234375 -7.03125 C 19.234375 -6.820312 19.160156 -6.644531 19.015625 -6.5 C 18.953125 -6.445312 18.679688 -6.191406 18.203125 -5.734375 C 17.722656 -5.285156 17.085938 -4.742188 16.296875 -4.109375 C 15.503906 -3.472656 14.601562 -2.84375 13.59375 -2.21875 C 12.59375 -1.601562 11.539062 -1.082031 10.4375 -0.65625 C 9.34375 -0.238281 8.242188 -0.03125 7.140625 -0.03125 C 6.378906 -0.03125 5.628906 -0.164062 4.890625 -0.4375 C 3.234375 -1.070312 2.007812 -2.46875 1.21875 -4.625 C 0.425781 -6.78125 0.128906 -9.507812 0.328125 -12.8125 C 0.304688 -12.957031 0.242188 -13.078125 0.140625 -13.171875 C 0.0234375 -13.265625 -0.101562 -13.300781 -0.25 -13.28125 C -1.65625 -13.164062 -2.925781 -13.066406 -4.0625 -12.984375 C -5.207031 -12.910156 -6.117188 -12.847656 -6.796875 -12.796875 C -7.484375 -12.753906 -7.847656 -12.734375 -7.890625 -12.734375 L -7.9375 -12.734375 C -8.144531 -12.710938 -8.320312 -12.769531 -8.46875 -12.90625 C -8.613281 -13.039062 -8.6875 -13.210938 -8.6875 -13.421875 C -8.6875 -13.617188 -8.617188 -13.789062 -8.484375 -13.9375 C -8.359375 -14.09375 -8.195312 -14.171875 -8 -14.171875 C -7.957031 -14.171875 -7.578125 -14.195312 -6.859375 -14.25 C -6.140625 -14.300781 -5.179688 -14.375 -3.984375 -14.46875 C -2.785156 -14.5625 -1.457031 -14.65625 0 -14.75 C 0.164062 -14.769531 0.296875 -14.851562 0.390625 -15 C 0.492188 -15.144531 0.566406 -15.320312 0.609375 -15.53125 C 0.773438 -16.613281 0.988281 -17.722656 1.25 -18.859375 C 1.519531 -19.992188 1.832031 -21.050781 2.1875 -22.03125 C 2.539062 -23.007812 2.9375 -23.816406 3.375 -24.453125 C 3.820312 -25.085938 4.289062 -25.457031 4.78125 -25.5625 C 4.988281 -25.601562 5.257812 -25.570312 5.59375 -25.46875 C 5.9375 -25.363281 6.25 -25.03125 6.53125 -24.46875 C 6.726562 -24.070312 6.769531 -23.414062 6.65625 -22.5 C 6.550781 -21.59375 6.332031 -20.539062 6 -19.34375 C 5.664062 -18.144531 5.28125 -16.910156 4.84375 -15.640625 C 4.75 -15.398438 4.742188 -15.242188 4.828125 -15.171875 C 4.910156 -15.109375 4.976562 -15.078125 5.03125 -15.078125 C 6.820312 -15.191406 8.523438 -15.285156 10.140625 -15.359375 C 11.753906 -15.429688 13.097656 -15.46875 14.171875 -15.46875 C 14.367188 -15.46875 14.535156 -15.394531 14.671875 -15.25 C 14.816406 -15.101562 14.890625 -14.9375 14.890625 -14.75 C 14.890625 -14.539062 14.816406 -14.363281 14.671875 -14.21875 C 14.535156 -14.070312 14.367188 -14 14.171875 -14 C 13.054688 -14 11.632812 -13.96875 9.90625 -13.90625 C 8.1875 -13.84375 6.394531 -13.738281 4.53125 -13.59375 C 4.375 -13.59375 4.257812 -13.570312 4.1875 -13.53125 C 4.125 -13.488281 4.066406 -13.40625 4.015625 -13.28125 C 3.628906 -12.132812 3.242188 -11.078125 2.859375 -10.109375 C 2.484375 -9.140625 2.175781 -8.363281 1.9375 -7.78125 C 2.050781 -6.90625 2.238281 -6.066406 2.5 -5.265625 C 2.769531 -4.460938 3.140625 -3.753906 3.609375 -3.140625 C 4.078125 -2.523438 4.679688 -2.078125 5.421875 -1.796875 C 6.253906 -1.484375 7.140625 -1.398438 8.078125 -1.546875 C 9.015625 -1.691406 9.945312 -1.984375 10.875 -2.421875 C 11.8125 -2.859375 12.695312 -3.359375 13.53125 -3.921875 C 14.375 -4.484375 15.128906 -5.039062 15.796875 -5.59375 C 16.460938 -6.144531 16.988281 -6.597656 17.375 -6.953125 C 17.757812 -7.316406 17.960938 -7.507812 17.984375 -7.53125 C 18.117188 -7.675781 18.285156 -7.75 18.484375 -7.75 C 18.691406 -7.75 18.867188 -7.675781 19.015625 -7.53125 Z M 2.078125 -15.546875 C 2.054688 -15.441406 2.046875 -15.3125 2.046875 -15.15625 C 2.046875 -15 2.117188 -14.921875 2.265625 -14.921875 C 2.410156 -14.921875 2.5625 -14.925781 2.71875 -14.9375 C 2.988281 -14.957031 3.148438 -15.113281 3.203125 -15.40625 C 3.679688 -16.789062 4.09375 -18.078125 4.4375 -19.265625 C 4.78125 -20.460938 5.023438 -21.457031 5.171875 -22.25 C 5.316406 -23.039062 5.335938 -23.554688 5.234375 -23.796875 C 5.191406 -23.910156 5.117188 -23.984375 5.015625 -24.015625 C 4.898438 -24.035156 4.804688 -24.007812 4.734375 -23.9375 C 4.472656 -23.65625 4.175781 -23.117188 3.84375 -22.328125 C 3.507812 -21.535156 3.179688 -20.554688 2.859375 -19.390625 C 2.535156 -18.234375 2.273438 -16.953125 2.078125 -15.546875 Z M 1.71875 -11.234375 C 1.789062 -11.234375 1.882812 -11.332031 2 -11.53125 C 2.125 -11.738281 2.234375 -11.976562 2.328125 -12.25 C 2.429688 -12.53125 2.503906 -12.789062 2.546875 -13.03125 C 2.597656 -13.269531 2.597656 -13.414062 2.546875 -13.46875 C 2.285156 -13.601562 2.046875 -13.585938 1.828125 -13.421875 C 1.753906 -13.347656 1.695312 -13.195312 1.65625 -12.96875 C 1.625 -12.738281 1.597656 -12.488281 1.578125 -12.21875 C 1.554688 -11.945312 1.554688 -11.710938 1.578125 -11.515625 C 1.609375 -11.328125 1.65625 -11.234375 1.71875 -11.234375 Z M 1.71875 -11.234375 "/></g></g></g></svg>